STARTFONT 2.1
FONT -Monotype-Century Gothic-Bold-I-Normal--12-120-72-72-P-67-iso8859-1
SIZE 12 72 72
FONTBOUNDINGBOX 15 16 -1 -3

STARTPROPERTIES 22
FOUNDRY "Monotype"
FAMILY_NAME "Century Gothic"
WEIGHT_NAME "Bold"
SLANT "I"
SETWIDTH_NAME "Normal"
ADD_STYLE_NAME ""
PIXEL_SIZE 12
POINT_SIZE 120
RESOLUTION_X 72
RESOLUTION_Y 72
SPACING "P"
AVERAGE_WIDTH 67
CHARSET_REGISTRY "iso8859"
CHARSET_ENCODING "1"
COPYRIGHT "Copyright (c) 1996 Monotype Typography Ltd."
CAP_HEIGHT 11
X_HEIGHT 8
WEIGHT 10
QUAD_WIDTH 8
DEFAULT_CHAR 32
FONT_DESCENT 3
FONT_ASCENT 13
ENDPROPERTIES

CHARS 191

STARTCHAR space
ENCODING 32
SWIDTH 280 0
DWIDTH 4 0
BBX 0 0 0 0
BITMAP
ENDCHAR

STARTCHAR exclam
ENCODING 33
SWIDTH 280 0
DWIDTH 4 0
BBX 3 10 1 0
BITMAP
60
60
60
60
C0
C0
C0
00
C0
C0
ENDCHAR

STARTCHAR quotedbl
ENCODING 34
SWIDTH 360 0
DWIDTH 5 0
BBX 5 3 0 7
BITMAP
D8
D8
D8
ENDCHAR

STARTCHAR numbersign
ENCODING 35
SWIDTH 600 0
DWIDTH 8 0
BBX 9 10 0 0
BITMAP
3600
3600
3600
7F80
3600
3600
FF00
6C00
6C00
6C00
ENDCHAR

STARTCHAR dollar
ENCODING 36
SWIDTH 560 0
DWIDTH 7 0
BBX 7 13 0 -2
BITMAP
0C
3E
76
60
70
38
1C
0E
C6
EE
7C
30
30
ENDCHAR

STARTCHAR percent
ENCODING 37
SWIDTH 860 0
DWIDTH 11 0
BBX 10 10 1 0
BITMAP
7B00
DD00
DB00
7200
0600
0C00
1BC0
36C0
66C0
4380
ENDCHAR

STARTCHAR ampersand
ENCODING 38
SWIDTH 680 0
DWIDTH 9 0
BBX 8 10 1 0
BITMAP
1C
3E
36
36
1C
78
EF
C6
FE
7B
ENDCHAR

STARTCHAR quoteright
ENCODING 39
SWIDTH 280 0
DWIDTH 4 0
BBX 3 4 1 6
BITMAP
60
60
60
C0
ENDCHAR

STARTCHAR parenleft
ENCODING 40
SWIDTH 380 0
DWIDTH 5 0
BBX 5 13 0 -3
BITMAP
18
30
30
60
60
C0
C0
C0
C0
C0
C0
60
60
ENDCHAR

STARTCHAR parenright
ENCODING 41
SWIDTH 380 0
DWIDTH 5 0
BBX 5 13 0 -3
BITMAP
30
30
18
18
18
18
18
18
30
30
60
60
C0
ENDCHAR

STARTCHAR asterisk
ENCODING 42
SWIDTH 440 0
DWIDTH 6 0
BBX 5 5 1 5
BITMAP
90
58
70
D0
48
ENDCHAR

STARTCHAR plus
ENCODING 43
SWIDTH 600 0
DWIDTH 8 0
BBX 6 6 1 2
BITMAP
30
30
FC
FC
30
30
ENDCHAR

STARTCHAR comma
ENCODING 44
SWIDTH 280 0
DWIDTH 4 0
BBX 2 3 1 -1
BITMAP
40
C0
80
ENDCHAR

STARTCHAR minus
ENCODING 45
SWIDTH 600 0
DWIDTH 8 0
BBX 6 2 1 4
BITMAP
FC
FC
ENDCHAR

STARTCHAR period
ENCODING 46
SWIDTH 280 0
DWIDTH 4 0
BBX 2 2 1 0
BITMAP
C0
C0
ENDCHAR

STARTCHAR slash
ENCODING 47
SWIDTH 460 0
DWIDTH 6 0
BBX 6 12 0 -2
BITMAP
0C
08
08
18
10
10
30
20
20
60
40
C0
ENDCHAR

STARTCHAR zero
ENCODING 48
SWIDTH 560 0
DWIDTH 7 0
BBX 7 10 0 0
BITMAP
18
7C
66
C6
C6
C6
C6
CC
7C
30
ENDCHAR

STARTCHAR one
ENCODING 49
SWIDTH 560 0
DWIDTH 7 0
BBX 4 10 1 0
BITMAP
70
F0
30
30
30
30
60
60
60
60
ENDCHAR

STARTCHAR two
ENCODING 50
SWIDTH 560 0
DWIDTH 7 0
BBX 7 10 0 0
BITMAP
3C
7E
66
06
0C
0C
18
30
7C
FC
ENDCHAR

STARTCHAR three
ENCODING 51
SWIDTH 560 0
DWIDTH 7 0
BBX 7 10 0 0
BITMAP
3C
7E
66
06
1C
18
0C
CC
FC
78
ENDCHAR

STARTCHAR four
ENCODING 52
SWIDTH 560 0
DWIDTH 7 0
BBX 7 10 0 0
BITMAP
06
0E
1E
36
36
6C
FE
FE
0C
0C
ENDCHAR

STARTCHAR five
ENCODING 53
SWIDTH 560 0
DWIDTH 7 0
BBX 7 10 0 0
BITMAP
3E
3E
60
78
7C
0C
0C
DC
F8
70
ENDCHAR

STARTCHAR six
ENCODING 54
SWIDTH 560 0
DWIDTH 7 0
BBX 6 10 1 0
BITMAP
0C
18
30
60
78
FC
CC
CC
F8
70
ENDCHAR

STARTCHAR seven
ENCODING 55
SWIDTH 560 0
DWIDTH 7 0
BBX 6 10 1 0
BITMAP
FC
FC
0C
18
18
30
60
60
C0
C0
ENDCHAR

STARTCHAR eight
ENCODING 56
SWIDTH 560 0
DWIDTH 7 0
BBX 7 10 0 0
BITMAP
1C
3E
66
64
38
6C
CC
CC
F8
70
ENDCHAR

STARTCHAR nine
ENCODING 57
SWIDTH 560 0
DWIDTH 7 0
BBX 6 10 1 0
BITMAP
38
7C
CC
CC
FC
78
18
30
60
C0
ENDCHAR

STARTCHAR colon
ENCODING 58
SWIDTH 280 0
DWIDTH 4 0
BBX 3 7 1 0
BITMAP
60
60
00
00
00
C0
C0
ENDCHAR

STARTCHAR semicolon
ENCODING 59
SWIDTH 280 0
DWIDTH 4 0
BBX 3 8 1 -1
BITMAP
60
60
00
00
00
40
C0
80
ENDCHAR

STARTCHAR less
ENCODING 60
SWIDTH 600 0
DWIDTH 8 0
BBX 7 7 1 1
BITMAP
06
1C
70
C0
60
38
0C
ENDCHAR

STARTCHAR equal
ENCODING 61
SWIDTH 600 0
DWIDTH 8 0
BBX 6 5 1 2
BITMAP
FC
FC
00
FC
FC
ENDCHAR

STARTCHAR greater
ENCODING 62
SWIDTH 600 0
DWIDTH 8 0
BBX 7 7 1 1
BITMAP
60
38
0C
06
1C
70
C0
ENDCHAR

STARTCHAR question
ENCODING 63
SWIDTH 560 0
DWIDTH 7 0
BBX 6 10 1 0
BITMAP
70
F8
CC
0C
18
30
30
00
60
60
ENDCHAR

STARTCHAR at
ENCODING 64
SWIDTH 740 0
DWIDTH 10 0
BBX 10 10 0 0
BITMAP
1F00
6080
5B40
B740
B340
B340
B640
5B80
6000
1E00
ENDCHAR

STARTCHAR A
ENCODING 65
SWIDTH 740 0
DWIDTH 9 0
BBX 9 10 0 0
BITMAP
0400
0E00
0E00
1B00
1B00
3300
3F00
7F80
6180
C180
ENDCHAR

STARTCHAR B
ENCODING 66
SWIDTH 580 0
DWIDTH 8 0
BBX 7 10 1 0
BITMAP
7C
7E
66
66
7C
FC
C6
C6
FE
FC
ENDCHAR

STARTCHAR C
ENCODING 67
SWIDTH 780 0
DWIDTH 10 0
BBX 10 10 0 0
BITMAP
0F00
3FC0
70C0
6000
C000
C000
C000
6180
7F80
1E00
ENDCHAR

STARTCHAR D
ENCODING 68
SWIDTH 700 0
DWIDTH 9 0
BBX 9 10 0 0
BITMAP
7C00
7F00
6300
6180
6180
C180
C300
C700
FE00
F800
ENDCHAR

STARTCHAR E
ENCODING 69
SWIDTH 520 0
DWIDTH 7 0
BBX 7 10 0 0
BITMAP
7E
7E
60
60
7C
FC
C0
C0
FC
FC
ENDCHAR

STARTCHAR F
ENCODING 70
SWIDTH 480 0
DWIDTH 6 0
BBX 6 10 0 0
BITMAP
7C
7C
60
60
78
F8
C0
C0
C0
C0
ENDCHAR

STARTCHAR G
ENCODING 71
SWIDTH 840 0
DWIDTH 10 0
BBX 10 10 0 0
BITMAP
0F00
3FC0
70C0
6000
C000
C7C0
C7C0
6180
7F80
1E00
ENDCHAR

STARTCHAR H
ENCODING 72
SWIDTH 680 0
DWIDTH 9 0
BBX 8 10 1 0
BITMAP
63
63
63
63
7F
7F
C6
C6
C6
C6
ENDCHAR

STARTCHAR I
ENCODING 73
SWIDTH 280 0
DWIDTH 4 0
BBX 3 10 1 0
BITMAP
60
60
60
60
60
C0
C0
C0
C0
C0
ENDCHAR

STARTCHAR J
ENCODING 74
SWIDTH 480 0
DWIDTH 6 0
BBX 6 10 0 0
BITMAP
0C
0C
0C
0C
0C
18
18
98
F8
70
ENDCHAR

STARTCHAR K
ENCODING 75
SWIDTH 620 0
DWIDTH 8 0
BBX 8 10 0 0
BITMAP
63
63
66
6C
78
F8
CC
CC
C6
C6
ENDCHAR

STARTCHAR L
ENCODING 76
SWIDTH 440 0
DWIDTH 6 0
BBX 5 10 1 0
BITMAP
60
60
60
60
60
C0
C0
C0
F8
F8
ENDCHAR

STARTCHAR M
ENCODING 77
SWIDTH 900 0
DWIDTH 12 0
BBX 11 10 1 0
BITMAP
3060
3060
38E0
39E0
6960
6B60
6B60
CE60
CE60
C460
ENDCHAR

STARTCHAR N
ENCODING 78
SWIDTH 740 0
DWIDTH 10 0
BBX 9 10 1 0
BITMAP
6180
6180
7180
7980
D980
CD80
CF00
C700
C300
C300
ENDCHAR

STARTCHAR O
ENCODING 79
SWIDTH 840 0
DWIDTH 11 0
BBX 10 10 1 0
BITMAP
0E00
3F80
7180
60C0
C0C0
C0C0
C180
6380
7F00
1C00
ENDCHAR

STARTCHAR P
ENCODING 80
SWIDTH 560 0
DWIDTH 7 0
BBX 7 10 0 0
BITMAP
7C
7E
66
66
7C
F8
C0
C0
C0
C0
ENDCHAR

STARTCHAR Q
ENCODING 81
SWIDTH 840 0
DWIDTH 11 0
BBX 10 10 1 0
BITMAP
0E00
3F80
7180
60C0
C0C0
C0C0
C6C0
6380
7F80
1DC0
ENDCHAR

STARTCHAR R
ENCODING 82
SWIDTH 580 0
DWIDTH 8 0
BBX 7 10 1 0
BITMAP
7C
7E
66
66
7C
F8
CC
CC
C6
C6
ENDCHAR

STARTCHAR S
ENCODING 83
SWIDTH 520 0
DWIDTH 7 0
BBX 7 10 0 0
BITMAP
3C
7E
66
70
30
18
1C
CC
FC
78
ENDCHAR

STARTCHAR T
ENCODING 84
SWIDTH 420 0
DWIDTH 5 0
BBX 6 10 0 0
BITMAP
FC
FC
30
30
30
30
60
60
60
60
ENDCHAR

STARTCHAR U
ENCODING 85
SWIDTH 640 0
DWIDTH 8 0
BBX 8 10 0 0
BITMAP
63
63
63
63
C6
C6
C6
CC
7C
38
ENDCHAR

STARTCHAR V
ENCODING 86
SWIDTH 700 0
DWIDTH 9 0
BBX 9 10 0 0
BITMAP
C180
C180
C300
C300
6600
6600
6C00
6C00
3800
3800
ENDCHAR

STARTCHAR W
ENCODING 87
SWIDTH 900 0
DWIDTH 12 0
BBX 11 10 1 0
BITMAP
C460
CE60
CE60
DAC0
DAC0
D2C0
F380
E380
C180
C180
ENDCHAR

STARTCHAR X
ENCODING 88
SWIDTH 680 0
DWIDTH 9 0
BBX 9 10 0 0
BITMAP
6180
6180
3300
1E00
0C00
1C00
3600
6600
C300
C300
ENDCHAR

STARTCHAR Y
ENCODING 89
SWIDTH 620 0
DWIDTH 8 0
BBX 8 10 0 0
BITMAP
C3
C3
66
3C
38
18
30
30
30
30
ENDCHAR

STARTCHAR Z
ENCODING 90
SWIDTH 500 0
DWIDTH 7 0
BBX 6 10 1 0
BITMAP
7C
7C
0C
18
18
30
30
60
FC
FC
ENDCHAR

STARTCHAR bracketleft
ENCODING 91
SWIDTH 320 0
DWIDTH 4 0
BBX 4 13 0 -3
BITMAP
70
70
60
60
60
60
C0
C0
C0
C0
C0
E0
E0
ENDCHAR

STARTCHAR backslash
ENCODING 92
SWIDTH 640 0
DWIDTH 8 0
BBX 6 12 1 -2
BITMAP
C0
40
60
20
20
30
10
10
18
08
08
0C
ENDCHAR

STARTCHAR bracketright
ENCODING 93
SWIDTH 320 0
DWIDTH 4 0
BBX 4 13 0 -3
BITMAP
70
70
30
30
30
30
60
60
60
60
60
E0
E0
ENDCHAR

STARTCHAR asciicircum
ENCODING 94
SWIDTH 600 0
DWIDTH 8 0
BBX 6 7 1 3
BITMAP
30
30
78
78
CC
CC
84
ENDCHAR

STARTCHAR underscore
ENCODING 95
SWIDTH 500 0
DWIDTH 7 0
BBX 7 1 0 -2
BITMAP
FE
ENDCHAR

STARTCHAR quoteleft
ENCODING 96
SWIDTH 280 0
DWIDTH 4 0
BBX 3 4 1 6
BITMAP
60
C0
C0
C0
ENDCHAR

STARTCHAR a
ENCODING 97
SWIDTH 660 0
DWIDTH 9 0
BBX 8 7 1 0
BITMAP
1B
7F
67
C3
C6
7E
36
ENDCHAR

STARTCHAR b
ENCODING 98
SWIDTH 660 0
DWIDTH 9 0
BBX 8 10 1 0
BITMAP
30
30
60
6C
7E
73
C3
E6
FE
D8
ENDCHAR

STARTCHAR c
ENCODING 99
SWIDTH 640 0
DWIDTH 8 0
BBX 7 7 1 0
BITMAP
1C
7E
66
C0
CC
7C
38
ENDCHAR

STARTCHAR d
ENCODING 100
SWIDTH 660 0
DWIDTH 9 0
BBX 9 10 0 0
BITMAP
0180
0180
0300
1B00
7F00
6700
C600
CE00
7E00
3600
ENDCHAR

STARTCHAR e
ENCODING 101
SWIDTH 640 0
DWIDTH 8 0
BBX 8 7 0 0
BITMAP
1C
7E
63
FF
C0
7E
38
ENDCHAR

STARTCHAR f
ENCODING 102
SWIDTH 280 0
DWIDTH 4 0
BBX 5 10 0 0
BITMAP
18
38
60
F0
60
60
C0
C0
C0
C0
ENDCHAR

STARTCHAR g
ENCODING 103
SWIDTH 660 0
DWIDTH 9 0
BBX 8 10 1 -3
BITMAP
1B
7F
67
C3
C6
7E
36
C6
FC
38
ENDCHAR

STARTCHAR h
ENCODING 104
SWIDTH 600 0
DWIDTH 8 0
BBX 7 10 1 0
BITMAP
60
60
60
7C
7E
66
CC
CC
CC
CC
ENDCHAR

STARTCHAR i
ENCODING 105
SWIDTH 240 0
DWIDTH 3 0
BBX 3 10 0 0
BITMAP
60
60
00
60
60
60
C0
C0
C0
C0
ENDCHAR

STARTCHAR j
ENCODING 106
SWIDTH 260 0
DWIDTH 3 0
BBX 4 12 -1 -2
BITMAP
30
30
00
30
30
30
60
60
60
60
60
C0
ENDCHAR

STARTCHAR k
ENCODING 107
SWIDTH 580 0
DWIDTH 8 0
BBX 7 10 1 0
BITMAP
60
60
60
66
6C
78
F0
D8
CC
C6
ENDCHAR

STARTCHAR l
ENCODING 108
SWIDTH 240 0
DWIDTH 3 0
BBX 3 10 0 0
BITMAP
60
60
60
60
60
C0
C0
C0
C0
C0
ENDCHAR

STARTCHAR m
ENCODING 109
SWIDTH 940 0
DWIDTH 12 0
BBX 11 7 1 0
BITMAP
6CC0
7FE0
6660
6660
CCC0
CCC0
CCC0
ENDCHAR

STARTCHAR n
ENCODING 110
SWIDTH 600 0
DWIDTH 8 0
BBX 7 7 1 0
BITMAP
6C
7E
66
66
CC
CC
CC
ENDCHAR

STARTCHAR o
ENCODING 111
SWIDTH 640 0
DWIDTH 8 0
BBX 8 7 0 0
BITMAP
1C
7E
63
C3
C6
7E
38
ENDCHAR

STARTCHAR p
ENCODING 112
SWIDTH 660 0
DWIDTH 9 0
BBX 9 10 0 -3
BITMAP
3600
3F00
3980
3180
3300
7F00
6C00
6000
C000
C000
ENDCHAR

STARTCHAR q
ENCODING 113
SWIDTH 660 0
DWIDTH 9 0
BBX 8 10 1 -3
BITMAP
1B
7F
67
C3
CE
7E
36
06
0C
0C
ENDCHAR

STARTCHAR r
ENCODING 114
SWIDTH 320 0
DWIDTH 4 0
BBX 5 7 0 0
BITMAP
68
78
70
60
C0
C0
C0
ENDCHAR

STARTCHAR s
ENCODING 115
SWIDTH 440 0
DWIDTH 6 0
BBX 6 7 0 0
BITMAP
38
7C
64
30
98
F8
70
ENDCHAR

STARTCHAR t
ENCODING 116
SWIDTH 300 0
DWIDTH 4 0
BBX 5 10 0 0
BITMAP
30
30
30
F8
60
60
C0
C0
C0
C0
ENDCHAR

STARTCHAR u
ENCODING 117
SWIDTH 600 0
DWIDTH 8 0
BBX 7 7 1 0
BITMAP
66
66
66
CC
CC
FC
78
ENDCHAR

STARTCHAR v
ENCODING 118
SWIDTH 560 0
DWIDTH 7 0
BBX 7 7 0 0
BITMAP
C6
C6
6C
6C
38
30
30
ENDCHAR

STARTCHAR w
ENCODING 119
SWIDTH 800 0
DWIDTH 10 0
BBX 10 7 0 0
BITMAP
C8C0
C8C0
DD80
DD80
7700
6300
6300
ENDCHAR

STARTCHAR x
ENCODING 120
SWIDTH 560 0
DWIDTH 7 0
BBX 7 7 0 0
BITMAP
66
66
3C
38
78
CC
CC
ENDCHAR

STARTCHAR y
ENCODING 121
SWIDTH 580 0
DWIDTH 8 0
BBX 7 10 1 -3
BITMAP
C6
C6
6C
6C
38
30
30
60
60
C0
ENDCHAR

STARTCHAR z
ENCODING 122
SWIDTH 460 0
DWIDTH 6 0
BBX 6 7 0 0
BITMAP
7C
7C
18
30
60
F8
F8
ENDCHAR

STARTCHAR braceleft
ENCODING 123
SWIDTH 340 0
DWIDTH 4 0
BBX 5 13 0 -3
BITMAP
18
38
30
30
30
60
C0
60
60
60
60
70
30
ENDCHAR

STARTCHAR bar
ENCODING 124
SWIDTH 600 0
DWIDTH 8 0
BBX 1 13 3 -3
BITMAP
80
80
80
80
80
80
80
80
80
80
80
80
80
ENDCHAR

STARTCHAR braceright
ENCODING 125
SWIDTH 340 0
DWIDTH 4 0
BBX 5 13 0 -3
BITMAP
60
70
30
30
30
30
18
30
60
60
60
E0
C0
ENDCHAR

STARTCHAR asciitilde
ENCODING 126
SWIDTH 600 0
DWIDTH 8 0
BBX 6 3 1 3
BITMAP
64
FC
98
ENDCHAR

STARTCHAR space
ENCODING 160
SWIDTH 280 0
DWIDTH 4 0
BBX 0 0 0 0
BITMAP
ENDCHAR

STARTCHAR exclamdown
ENCODING 161
SWIDTH 280 0
DWIDTH 4 0
BBX 3 10 0 -3
BITMAP
60
60
60
60
C0
C0
C0
00
C0
C0
ENDCHAR

STARTCHAR cent
ENCODING 162
SWIDTH 560 0
DWIDTH 7 0
BBX 7 10 0 -1
BITMAP
02
1C
7E
6E
D8
F0
EC
7C
78
80
ENDCHAR

STARTCHAR sterling
ENCODING 163
SWIDTH 560 0
DWIDTH 7 0
BBX 7 10 0 0
BITMAP
1C
3E
66
60
FC
FC
30
66
FE
FC
ENDCHAR

STARTCHAR currency
ENCODING 164
SWIDTH 600 0
DWIDTH 8 0
BBX 7 7 1 1
BITMAP
BA
6C
C6
82
C6
6C
BA
ENDCHAR

STARTCHAR yen
ENCODING 165
SWIDTH 560 0
DWIDTH 7 0
BBX 8 10 0 0
BITMAP
C7
66
6C
6C
38
FC
30
FC
30
20
ENDCHAR

STARTCHAR brokenbar
ENCODING 166
SWIDTH 600 0
DWIDTH 8 0
BBX 1 13 3 -3
BITMAP
80
80
80
80
00
00
00
00
00
80
80
80
80
ENDCHAR

STARTCHAR section
ENCODING 167
SWIDTH 560 0
DWIDTH 7 0
BBX 9 13 -1 -3
BITMAP
0F00
1980
1980
0C00
3C00
6600
6300
3300
1E00
1800
CC00
CC00
7800
ENDCHAR

STARTCHAR dieresis
ENCODING 168
SWIDTH 500 0
DWIDTH 7 0
BBX 6 2 1 8
BITMAP
CC
CC
ENDCHAR

STARTCHAR copyright
ENCODING 169
SWIDTH 740 0
DWIDTH 10 0
BBX 10 10 0 0
BITMAP
1E00
7380
5C80
F6C0
B040
B040
F6C0
5C80
7380
1E00
ENDCHAR

STARTCHAR ordfeminine
ENCODING 170
SWIDTH 360 0
DWIDTH 5 0
BBX 4 4 1 6
BITMAP
70
B0
B0
D0
ENDCHAR

STARTCHAR guillemotleft
ENCODING 171
SWIDTH 460 0
DWIDTH 6 0
BBX 6 7 0 0
BITMAP
24
24
6C
D8
48
6C
24
ENDCHAR

STARTCHAR logicalnot
ENCODING 172
SWIDTH 600 0
DWIDTH 8 0
BBX 6 4 1 3
BITMAP
FC
FC
0C
0C
ENDCHAR

STARTCHAR hyphen
ENCODING 173
SWIDTH 420 0
DWIDTH 5 0
BBX 3 2 1 2
BITMAP
E0
E0
ENDCHAR

STARTCHAR registered
ENCODING 174
SWIDTH 740 0
DWIDTH 10 0
BBX 10 10 0 0
BITMAP
1E00
7380
5C80
D6C0
9640
9C40
D6C0
5680
7380
1E00
ENDCHAR

STARTCHAR macron
ENCODING 175
SWIDTH 420 0
DWIDTH 5 0
BBX 4 1 2 9
BITMAP
F0
ENDCHAR

STARTCHAR degree
ENCODING 176
SWIDTH 400 0
DWIDTH 5 0
BBX 5 5 1 5
BITMAP
70
48
88
90
60
ENDCHAR

STARTCHAR plusminus
ENCODING 177
SWIDTH 600 0
DWIDTH 8 0
BBX 6 9 1 0
BITMAP
30
30
FC
FC
30
30
00
FC
FC
ENDCHAR

STARTCHAR twosuperior
ENCODING 178
SWIDTH 336 0
DWIDTH 4 0
BBX 4 5 0 5
BITMAP
60
B0
20
40
E0
ENDCHAR

STARTCHAR threesuperior
ENCODING 179
SWIDTH 336 0
DWIDTH 4 0
BBX 5 5 0 5
BITMAP
30
18
20
B0
60
ENDCHAR

STARTCHAR acute
ENCODING 180
SWIDTH 420 0
DWIDTH 5 0
BBX 3 2 2 9
BITMAP
60
C0
ENDCHAR

STARTCHAR mu
ENCODING 181
SWIDTH 576 0
DWIDTH 7 0
BBX 7 10 0 -3
BITMAP
66
66
66
66
CC
DC
EC
C0
C0
C0
ENDCHAR

STARTCHAR paragraph
ENCODING 182
SWIDTH 600 0
DWIDTH 8 0
BBX 6 12 1 -2
BITMAP
7C
E8
E8
E8
E8
68
28
28
28
28
28
28
ENDCHAR

STARTCHAR periodcentered
ENCODING 183
SWIDTH 280 0
DWIDTH 4 0
BBX 2 2 1 4
BITMAP
C0
C0
ENDCHAR

STARTCHAR cedilla
ENCODING 184
SWIDTH 340 0
DWIDTH 4 0
BBX 3 3 0 -2
BITMAP
40
20
E0
ENDCHAR

STARTCHAR onesuperior
ENCODING 185
SWIDTH 336 0
DWIDTH 4 0
BBX 2 5 1 5
BITMAP
C0
40
C0
80
80
ENDCHAR

STARTCHAR ordmasculine
ENCODING 186
SWIDTH 360 0
DWIDTH 5 0
BBX 4 4 1 6
BITMAP
70
90
90
E0
ENDCHAR

STARTCHAR guillemotright
ENCODING 187
SWIDTH 460 0
DWIDTH 6 0
BBX 6 7 0 0
BITMAP
90
D8
48
6C
D8
90
90
ENDCHAR

STARTCHAR onequarter
ENCODING 188
SWIDTH 840 0
DWIDTH 11 0
BBX 9 10 1 0
BITMAP
6300
2600
6400
4C00
4800
1080
3180
2300
6780
C100
ENDCHAR

STARTCHAR onehalf
ENCODING 189
SWIDTH 840 0
DWIDTH 11 0
BBX 9 10 1 0
BITMAP
C300
4600
C400
8C00
8800
1300
3580
2100
6200
C700
ENDCHAR

STARTCHAR threequarters
ENCODING 190
SWIDTH 840 0
DWIDTH 11 0
BBX 10 10 1 0
BITMAP
3180
1B00
2200
B600
6400
0840
18C0
1180
33C0
6080
ENDCHAR

STARTCHAR questiondown
ENCODING 191
SWIDTH 560 0
DWIDTH 7 0
BBX 6 10 0 -3
BITMAP
18
18
00
30
30
60
C0
CC
7C
38
ENDCHAR

STARTCHAR Agrave
ENCODING 192
SWIDTH 740 0
DWIDTH 9 0
BBX 9 13 0 0
BITMAP
0C00
0600
0000
0400
0E00
0E00
1B00
1B00
3300
3F00
7F80
6180
C180
ENDCHAR

STARTCHAR Aacute
ENCODING 193
SWIDTH 740 0
DWIDTH 9 0
BBX 9 13 0 0
BITMAP
0600
0C00
0000
0400
0E00
0E00
1B00
1B00
3300
3F00
7F80
6180
C180
ENDCHAR

STARTCHAR Acircumflex
ENCODING 194
SWIDTH 740 0
DWIDTH 9 0
BBX 9 13 0 0
BITMAP
0E00
1B00
0000
0400
0E00
0E00
1B00
1B00
3300
3F00
7F80
6180
C180
ENDCHAR

STARTCHAR Atilde
ENCODING 195
SWIDTH 740 0
DWIDTH 9 0
BBX 9 13 0 0
BITMAP
0D00
1600
0000
0400
0E00
0E00
1B00
1B00
3300
3F00
7F80
6180
C180
ENDCHAR

STARTCHAR Adieresis
ENCODING 196
SWIDTH 740 0
DWIDTH 9 0
BBX 9 13 0 0
BITMAP
1B00
1B00
0000
0400
0E00
0E00
1B00
1B00
3300
3F00
7F80
6180
C180
ENDCHAR

STARTCHAR Aring
ENCODING 197
SWIDTH 740 0
DWIDTH 9 0
BBX 9 13 0 0
BITMAP
0E00
0A00
0600
0400
0E00
0E00
1B00
1B00
3300
3F00
7F80
6180
C180
ENDCHAR

STARTCHAR AE
ENCODING 198
SWIDTH 900 0
DWIDTH 12 0
BBX 12 10 0 0
BITMAP
03F0
06F0
0D80
1900
19F0
31F0
3F00
7F00
63E0
C3E0
ENDCHAR

STARTCHAR Ccedilla
ENCODING 199
SWIDTH 780 0
DWIDTH 10 0
BBX 10 12 0 -2
BITMAP
0F00
3FC0
70C0
6000
C000
C000
C000
6180
3F80
1E00
0400
1C00
ENDCHAR

STARTCHAR Egrave
ENCODING 200
SWIDTH 520 0
DWIDTH 7 0
BBX 7 13 0 0
BITMAP
30
18
00
7E
7E
60
60
7C
FC
C0
C0
FC
FC
ENDCHAR

STARTCHAR Eacute
ENCODING 201
SWIDTH 520 0
DWIDTH 7 0
BBX 7 13 0 0
BITMAP
0C
18
00
7E
7E
60
60
7C
FC
C0
C0
FC
FC
ENDCHAR

STARTCHAR Ecircumflex
ENCODING 202
SWIDTH 520 0
DWIDTH 7 0
BBX 7 13 0 0
BITMAP
1C
36
00
7E
7E
60
60
7C
FC
C0
C0
FC
FC
ENDCHAR

STARTCHAR Edieresis
ENCODING 203
SWIDTH 520 0
DWIDTH 7 0
BBX 7 13 0 0
BITMAP
36
36
00
7E
7E
60
60
7C
FC
C0
C0
FC
FC
ENDCHAR

STARTCHAR Igrave
ENCODING 204
SWIDTH 280 0
DWIDTH 4 0
BBX 4 13 0 0
BITMAP
C0
60
00
30
30
30
30
30
60
60
60
60
60
ENDCHAR

STARTCHAR Iacute
ENCODING 205
SWIDTH 280 0
DWIDTH 4 0
BBX 4 13 1 0
BITMAP
30
60
00
60
60
60
60
60
C0
C0
C0
C0
C0
ENDCHAR

STARTCHAR Icircumflex
ENCODING 206
SWIDTH 280 0
DWIDTH 4 0
BBX 5 13 0 0
BITMAP
70
D8
00
30
30
30
30
30
60
60
60
60
60
ENDCHAR

STARTCHAR Idieresis
ENCODING 207
SWIDTH 280 0
DWIDTH 4 0
BBX 5 13 0 0
BITMAP
D8
D8
00
30
30
30
30
30
60
60
60
60
60
ENDCHAR

STARTCHAR Eth
ENCODING 208
SWIDTH 742 0
DWIDTH 10 0
BBX 8 10 1 0
BITMAP
78
7E
66
63
63
F3
C3
C6
FE
F8
ENDCHAR

STARTCHAR Ntilde
ENCODING 209
SWIDTH 740 0
DWIDTH 10 0
BBX 9 13 1 0
BITMAP
1A00
2C00
0000
6180
6180
7180
7980
D980
CD80
CF00
C700
C300
C300
ENDCHAR

STARTCHAR Ograve
ENCODING 210
SWIDTH 840 0
DWIDTH 11 0
BBX 10 13 1 0
BITMAP
0C00
0600
0000
0E00
3F80
7180
60C0
C0C0
C0C0
C180
6300
7F00
1C00
ENDCHAR

STARTCHAR Oacute
ENCODING 211
SWIDTH 840 0
DWIDTH 11 0
BBX 10 13 0 0
BITMAP
0180
0300
0000
0E00
3F80
7180
60C0
C0C0
C0C0
C180
6380
7F00
1C00
ENDCHAR

STARTCHAR Ocircumflex
ENCODING 212
SWIDTH 840 0
DWIDTH 11 0
BBX 10 13 1 0
BITMAP
0E00
1B00
0000
0E00
3F80
7180
60C0
C0C0
C0C0
C180
6380
7F00
1C00
ENDCHAR

STARTCHAR Otilde
ENCODING 213
SWIDTH 840 0
DWIDTH 11 0
BBX 10 13 1 0
BITMAP
0680
0900
0000
0E00
3F80
7180
60C0
C0C0
C0C0
C180
6380
7F00
1C00
ENDCHAR

STARTCHAR Odieresis
ENCODING 214
SWIDTH 840 0
DWIDTH 11 0
BBX 10 13 1 0
BITMAP
0D80
0D80
0000
0E00
3F80
7180
60C0
C0C0
C0C0
C180
6380
7F00
1C00
ENDCHAR

STARTCHAR multiply
ENCODING 215
SWIDTH 600 0
DWIDTH 8 0
BBX 6 6 1 2
BITMAP
44
CC
38
70
D8
88
ENDCHAR

STARTCHAR Oslash
ENCODING 216
SWIDTH 840 0
DWIDTH 11 0
BBX 10 10 1 0
BITMAP
1EC0
3F80
6180
42C0
C4C0
C8C0
D8C0
7180
7F00
DC00
ENDCHAR

STARTCHAR Ugrave
ENCODING 217
SWIDTH 640 0
DWIDTH 8 0
BBX 8 13 0 0
BITMAP
30
18
00
63
63
63
63
C6
C6
C6
CC
7C
38
ENDCHAR

STARTCHAR Uacute
ENCODING 218
SWIDTH 640 0
DWIDTH 8 0
BBX 8 13 0 0
BITMAP
0C
18
00
63
63
63
63
C6
C6
C6
CC
7C
38
ENDCHAR

STARTCHAR Ucircumflex
ENCODING 219
SWIDTH 640 0
DWIDTH 8 0
BBX 8 13 0 0
BITMAP
1C
36
00
63
63
63
63
C6
C6
C6
CC
7C
38
ENDCHAR

STARTCHAR Udieresis
ENCODING 220
SWIDTH 640 0
DWIDTH 8 0
BBX 8 13 0 0
BITMAP
36
36
00
63
63
63
63
C6
C6
C6
CC
7C
38
ENDCHAR

STARTCHAR Yacute
ENCODING 221
SWIDTH 620 0
DWIDTH 8 0
BBX 8 13 0 0
BITMAP
06
0C
00
C3
63
66
2C
38
18
30
30
30
30
ENDCHAR

STARTCHAR Thorn
ENCODING 222
SWIDTH 560 0
DWIDTH 7 0
BBX 6 10 1 0
BITMAP
60
40
F0
FC
CC
CC
F8
F0
C0
80
ENDCHAR

STARTCHAR germandbls
ENCODING 223
SWIDTH 600 0
DWIDTH 8 0
BBX 8 10 0 0
BITMAP
1E
3F
73
63
6E
CC
C6
C6
DE
DC
ENDCHAR

STARTCHAR agrave
ENCODING 224
SWIDTH 660 0
DWIDTH 9 0
BBX 8 10 1 0
BITMAP
18
0C
00
1B
7F
67
C3
C6
7E
36
ENDCHAR

STARTCHAR aacute
ENCODING 225
SWIDTH 660 0
DWIDTH 9 0
BBX 8 10 1 0
BITMAP
06
0C
00
3B
7F
67
C3
C6
7E
36
ENDCHAR

STARTCHAR acircumflex
ENCODING 226
SWIDTH 660 0
DWIDTH 9 0
BBX 8 10 1 0
BITMAP
1C
36
00
3B
7F
67
C3
C6
7E
36
ENDCHAR

STARTCHAR atilde
ENCODING 227
SWIDTH 660 0
DWIDTH 9 0
BBX 8 11 0 0
BITMAP
19
26
00
00
1B
7F
67
C3
C6
7E
36
ENDCHAR

STARTCHAR adieresis
ENCODING 228
SWIDTH 660 0
DWIDTH 9 0
BBX 8 10 0 0
BITMAP
36
36
00
3B
7F
67
C3
C6
7E
36
ENDCHAR

STARTCHAR aring
ENCODING 229
SWIDTH 660 0
DWIDTH 9 0
BBX 8 11 0 0
BITMAP
0E
0A
06
00
3B
7F
67
C3
C6
7E
36
ENDCHAR

STARTCHAR ae
ENCODING 230
SWIDTH 1080 0
DWIDTH 14 0
BBX 13 7 1 0
BITMAP
3AE0
7FF0
6618
C7F8
CE00
7FF0
35C0
ENDCHAR

STARTCHAR ccedilla
ENCODING 231
SWIDTH 640 0
DWIDTH 8 0
BBX 7 9 1 -2
BITMAP
3C
7E
66
C0
CC
7C
38
08
38
ENDCHAR

STARTCHAR egrave
ENCODING 232
SWIDTH 640 0
DWIDTH 8 0
BBX 8 10 0 0
BITMAP
18
0C
00
1C
7E
C3
FF
C0
7E
38
ENDCHAR

STARTCHAR eacute
ENCODING 233
SWIDTH 640 0
DWIDTH 8 0
BBX 8 10 0 0
BITMAP
0C
18
00
1C
7E
C3
FF
C0
7E
38
ENDCHAR

STARTCHAR ecircumflex
ENCODING 234
SWIDTH 640 0
DWIDTH 8 0
BBX 8 10 0 0
BITMAP
1C
36
00
1C
7E
C3
FF
C0
7E
38
ENDCHAR

STARTCHAR edieresis
ENCODING 235
SWIDTH 640 0
DWIDTH 8 0
BBX 8 10 0 0
BITMAP
36
36
00
1C
7E
C3
FF
C0
7E
38
ENDCHAR

STARTCHAR igrave
ENCODING 236
SWIDTH 240 0
DWIDTH 3 0
BBX 4 10 0 0
BITMAP
60
30
00
60
60
60
C0
C0
C0
C0
ENDCHAR

STARTCHAR iacute
ENCODING 237
SWIDTH 240 0
DWIDTH 3 0
BBX 4 10 0 0
BITMAP
30
60
00
60
60
60
C0
C0
C0
C0
ENDCHAR

STARTCHAR icircumflex
ENCODING 238
SWIDTH 240 0
DWIDTH 3 0
BBX 5 10 -1 0
BITMAP
70
D8
00
30
30
30
60
60
60
60
ENDCHAR

STARTCHAR idieresis
ENCODING 239
SWIDTH 240 0
DWIDTH 3 0
BBX 5 10 -1 0
BITMAP
D8
D8
00
30
30
30
60
60
60
60
ENDCHAR

STARTCHAR eth
ENCODING 240
SWIDTH 640 0
DWIDTH 8 0
BBX 8 10 0 0
BITMAP
1A
1C
16
3E
7F
C3
C3
C6
7E
38
ENDCHAR

STARTCHAR ntilde
ENCODING 241
SWIDTH 600 0
DWIDTH 8 0
BBX 7 10 1 0
BITMAP
34
58
00
6C
7E
66
66
CC
CC
CC
ENDCHAR

STARTCHAR ograve
ENCODING 242
SWIDTH 640 0
DWIDTH 8 0
BBX 8 10 0 0
BITMAP
18
0C
00
1C
7E
63
C3
C7
7E
38
ENDCHAR

STARTCHAR oacute
ENCODING 243
SWIDTH 640 0
DWIDTH 8 0
BBX 8 10 0 0
BITMAP
0C
18
00
1C
7E
63
C3
C7
7E
38
ENDCHAR

STARTCHAR ocircumflex
ENCODING 244
SWIDTH 640 0
DWIDTH 8 0
BBX 8 10 0 0
BITMAP
1C
36
00
1C
7E
63
C3
C7
7E
38
ENDCHAR

STARTCHAR otilde
ENCODING 245
SWIDTH 640 0
DWIDTH 8 0
BBX 8 10 0 0
BITMAP
1A
24
00
1C
7E
63
C3
C7
7E
38
ENDCHAR

STARTCHAR odieresis
ENCODING 246
SWIDTH 640 0
DWIDTH 8 0
BBX 8 10 0 0
BITMAP
36
36
00
1C
7E
63
C3
C7
7E
38
ENDCHAR

STARTCHAR divide
ENCODING 247
SWIDTH 600 0
DWIDTH 7 0
BBX 7 8 0 1
BITMAP
18
18
00
FE
FE
00
30
30
ENDCHAR

STARTCHAR oslash
ENCODING 248
SWIDTH 660 0
DWIDTH 9 0
BBX 8 8 1 0
BITMAP
01
1F
7E
4F
DB
F3
7E
D8
ENDCHAR

STARTCHAR ugrave
ENCODING 249
SWIDTH 600 0
DWIDTH 8 0
BBX 7 10 1 0
BITMAP
30
18
00
66
66
66
CC
CC
FC
78
ENDCHAR

STARTCHAR uacute
ENCODING 250
SWIDTH 600 0
DWIDTH 8 0
BBX 7 10 1 0
BITMAP
18
30
00
66
66
66
CC
CC
FC
78
ENDCHAR

STARTCHAR ucircumflex
ENCODING 251
SWIDTH 600 0
DWIDTH 8 0
BBX 7 10 1 0
BITMAP
38
6C
00
66
66
66
CC
CC
FC
78
ENDCHAR

STARTCHAR udieresis
ENCODING 252
SWIDTH 600 0
DWIDTH 8 0
BBX 7 10 1 0
BITMAP
6C
6C
00
66
66
66
CC
CC
FC
78
ENDCHAR

STARTCHAR yacute
ENCODING 253
SWIDTH 580 0
DWIDTH 8 0
BBX 7 13 1 -3
BITMAP
0C
18
00
C6
C6
6C
6C
38
30
30
60
60
C0
ENDCHAR

STARTCHAR thorn
ENCODING 254
SWIDTH 660 0
DWIDTH 9 0
BBX 8 13 0 -3
BITMAP
60
60
60
7C
7E
63
43
63
FE
DC
C0
C0
C0
ENDCHAR

STARTCHAR ydieresis
ENCODING 255
SWIDTH 580 0
DWIDTH 8 0
BBX 7 13 1 -3
BITMAP
36
36
00
C6
C6
6C
6C
38
30
30
60
60
C0
ENDCHAR
ENDFONT
